<svg width="293" height="91" viewBox="0 0 293 91" fill="none" xmlns="http://www.w3.org/2000/svg">
<path d="M13.0859 36.4C13.0859 36.6 13.0193 36.8 12.8859 37C12.7526 37.1333 12.4859 37.2333 12.0859 37.3C11.6859 37.3667 11.1193 37.4333 10.3859 37.5C9.6526 37.5 8.6526 37.4333 7.38594 37.3C5.11927 37.1 3.48594 36.7667 2.48594 36.3C1.41927 35.7667 0.819271 34.7 0.685937 33.1C0.552604 31.6333 0.819271 29.7 1.48594 27.3C2.1526 24.8333 3.6526 22.2333 5.98594 19.5C6.98594 18.3667 8.3526 17.0333 10.0859 15.5C11.8193 13.9667 13.9193 12.5333 16.3859 11.2C18.9193 9.8 21.8193 8.63333 25.0859 7.7C28.3526 6.7 31.9526 6.19999 35.8859 6.19999C38.3526 6.19999 40.7859 6.43333 43.1859 6.9C45.6526 7.36666 47.8859 8.1 49.8859 9.1C51.8859 10.1 53.5859 11.4 54.9859 13C56.3859 14.6 57.2859 16.5 57.6859 18.7C57.8859 19.9 57.9859 21.0667 57.9859 22.2C57.9859 24.3333 57.7526 26.3333 57.2859 28.2C56.8859 30.0667 56.2859 31.9333 55.4859 33.8C54.7526 35.6667 53.8859 37.6333 52.8859 39.7C51.8859 41.7 50.8526 43.9 49.7859 46.3C48.5859 48.9 47.3526 51.3667 46.0859 53.7C44.8193 56.0333 43.6193 58.3333 42.4859 60.6C41.3526 62.8 40.2859 65.0333 39.2859 67.3C38.2859 69.5 37.4526 71.8 36.7859 74.2C36.5193 75.0667 36.5193 75.9333 36.7859 76.8C37.0526 77.6667 37.4859 78.4667 38.0859 79.2C38.6859 79.8667 39.4526 80.4333 40.3859 80.9C41.3193 81.3667 42.3193 81.6 43.3859 81.6C46.3859 81.6 48.8526 80.7 50.7859 78.9C52.7859 77.0333 54.4526 74.8 55.7859 72.2C57.1193 69.5333 58.2526 66.7667 59.1859 63.9C60.1193 61.0333 61.0859 58.5333 62.0859 56.4C65.1526 49.6667 67.3526 44.5333 68.6859 41C70.0859 37.4 71.1193 35.0333 71.7859 33.9C72.0526 33.4333 72.8193 32.8333 74.0859 32.1C75.3526 31.3667 77.4859 31 80.4859 31C83.0193 31.0667 84.7193 31.2667 85.5859 31.6C86.4526 31.8667 86.6193 32.6333 86.0859 33.9C84.1526 39.2333 82.0193 44.2667 79.6859 49C77.3526 53.6667 75.0859 58.5667 72.8859 63.7C72.2859 65.1 71.5859 66.6333 70.7859 68.3C70.0526 69.9 69.4193 71.5 68.8859 73.1C68.3526 74.9 68.0859 76.4667 68.0859 77.8C68.1526 78.3333 68.3859 78.7333 68.7859 79C69.2526 79.2 69.7526 79.3 70.2859 79.3C71.2193 79.3 72.0193 79.1333 72.6859 78.8C74.2859 77.9333 75.8193 76.9 77.2859 75.7C78.7526 74.5 80.0859 73.3667 81.2859 72.3C82.5526 71.2333 83.6193 70.3333 84.4859 69.6C85.3526 68.8 85.9526 68.4 86.2859 68.4C86.3526 68.4 86.5193 68.4667 86.7859 68.6C87.0526 68.7333 87.3193 68.9667 87.5859 69.3C87.9193 69.8333 87.8859 70.7333 87.4859 72C87.1526 73.2 86.4859 74.5667 85.4859 76.1C84.4859 77.6333 83.2193 79.2333 81.6859 80.9C80.1526 82.5 78.4193 84 76.4859 85.4C74.6193 86.7333 72.5526 87.8333 70.2859 88.7C68.0859 89.5667 65.7859 90 63.3859 90C61.9859 90 60.5193 89.6667 58.9859 89C57.4526 88.2667 56.4859 87.4333 56.0859 86.5C55.5526 85.3 55.2859 83.8 55.2859 82C52.5526 84.5333 49.3526 86.5667 45.6859 88.1C42.0859 89.6333 38.4193 90.4 34.6859 90.4C32.7526 90.4 30.9193 90.1333 29.1859 89.6C27.4526 89.0667 25.9193 88.3333 24.5859 87.4C23.3193 86.4667 22.2859 85.3667 21.4859 84.1C20.7526 82.8333 20.3859 81.4667 20.3859 80C20.3859 77.4 20.9193 74.6667 21.9859 71.8C23.0526 68.8667 24.3859 65.8667 25.9859 62.8C27.5859 59.7333 29.3193 56.5667 31.1859 53.3C33.1193 50.0333 34.8859 46.7333 36.4859 43.4C38.0859 40 39.4193 36.6 40.4859 33.2C41.5526 29.7333 42.0859 26.2667 42.0859 22.8C42.0859 21.5333 41.9526 20.3 41.6859 19.1C41.4193 17.9 40.9526 16.8667 40.2859 16C39.6859 15.0667 38.8193 14.3333 37.6859 13.8C36.5526 13.2667 35.1193 13 33.3859 13C30.5859 13 27.8859 13.5 25.2859 14.5C22.6859 15.4333 20.3859 16.7333 18.3859 18.4C16.3859 20 14.7859 21.8667 13.5859 24C12.3859 26.1333 11.7859 28.3333 11.7859 30.6C11.7859 31.6 11.9859 32.5667 12.3859 33.5C12.8526 34.4333 13.0859 35.4 13.0859 36.4ZM121.227 54C121.294 54.5333 121.061 55.1667 120.527 55.9C119.994 56.6333 119.261 57.4 118.327 58.2C117.594 58.8 116.861 59.4 116.127 60C115.461 60.5333 114.827 60.9667 114.227 61.3C113.627 61.6333 113.061 61.8667 112.527 62C112.061 62.0667 111.727 61.9 111.527 61.5C111.194 60.9667 110.994 60.4 110.927 59.8C110.927 59.2 110.861 58.6667 110.727 58.2C110.594 57.8 110.394 57.3333 110.127 56.8C109.861 56.2 109.094 55.9 107.827 55.9C105.961 55.9 104.227 56.4667 102.627 57.6C101.094 58.7333 99.7607 60.1333 98.6273 61.8C97.494 63.4667 96.5607 65.2333 95.8273 67.1C95.094 68.9667 94.6607 70.6333 94.5273 72.1C94.194 74.7667 94.394 76.8 95.1273 78.2C95.9273 79.5333 97.394 80.2 99.5273 80.2C101.127 80.2 102.827 79.9667 104.627 79.5C106.427 79.0333 108.261 78.4 110.127 77.6C111.994 76.7333 113.827 75.7 115.627 74.5C117.427 73.3 119.127 72 120.727 70.6C121.061 70.2667 121.527 69.8333 122.127 69.3C122.794 68.7 123.394 68.4 123.927 68.4C124.527 68.4 124.894 68.7333 125.027 69.4C125.227 70.0667 125.294 70.5667 125.227 70.9C124.627 73.1 123.294 75.3667 121.227 77.7C119.161 80.0333 116.694 82.1667 113.827 84.1C111.027 86.0333 107.961 87.6333 104.627 88.9C101.361 90.1 98.194 90.7 95.1273 90.7C91.994 90.7 89.4607 90.3667 87.5273 89.7C85.594 89.0333 84.094 88.0667 83.0273 86.8C81.9607 85.5333 81.294 84.0333 81.0273 82.3C80.694 80.5 80.6607 78.5333 80.9273 76.4C81.3273 72.8 82.5273 69.2 84.5273 65.6C86.594 61.9333 89.094 58.6667 92.0273 55.8C94.9607 52.8667 98.1273 50.5 101.527 48.7C104.994 46.8333 108.361 45.9 111.627 45.9C114.027 45.9 115.861 46.2333 117.127 46.9C118.461 47.5667 119.427 48.3667 120.027 49.3C120.627 50.1667 120.961 51.0667 121.027 52C121.161 52.8667 121.227 53.5333 121.227 54ZM164.839 46.3C165.572 46.3 166.172 46.4667 166.639 46.8C167.106 47.0667 167.339 47.4 167.339 47.8C167.339 48.1333 167.139 48.5333 166.739 49C166.206 49.6 165.239 51.0333 163.839 53.3C162.506 55.5 161.139 58.0333 159.739 60.9C158.339 63.7667 157.072 66.7333 155.939 69.8C154.872 72.8 154.339 75.4 154.339 77.6C154.339 78.8667 154.872 79.5 155.939 79.5C156.539 79.5 157.272 79.2333 158.139 78.7C159.072 78.1667 160.039 77.5 161.039 76.7C162.039 75.8333 163.072 74.9333 164.139 74C165.272 73 166.306 72.1 167.239 71.3C168.172 70.4333 169.006 69.7333 169.739 69.2C170.472 68.6667 171.006 68.4 171.339 68.4C172.272 68.4 172.739 68.9333 172.739 70C172.739 72.5333 171.839 74.9667 170.039 77.3C168.239 79.6333 166.139 81.7 163.739 83.5C161.339 85.3 158.939 86.7667 156.539 87.9C154.139 89.0333 152.372 89.7333 151.239 90C150.239 90.2667 149.139 90.4 147.939 90.4C145.339 90.4 143.606 89.7333 142.739 88.4C141.872 87 141.439 85.1333 141.439 82.8V82.1C138.439 84.8333 135.539 86.9 132.739 88.3C130.006 89.7 127.306 90.4 124.639 90.4C122.106 90.4 120.406 89.7 119.539 88.3C118.606 86.9 118.139 85.0667 118.139 82.8C118.139 80.5333 118.439 77.9 119.039 74.9C119.572 71.8333 120.306 68.7667 121.239 65.7C122.239 62.6333 123.339 59.7333 124.539 57C125.739 54.2 127.006 51.8667 128.339 50C128.672 49.4667 129.406 48.9667 130.539 48.5C131.672 48.0333 132.906 47.6333 134.239 47.3C135.639 46.9667 137.006 46.7333 138.339 46.6C139.672 46.4 140.739 46.3 141.539 46.3C142.339 46.3 142.972 46.4667 143.439 46.8C143.906 47.0667 144.139 47.4 144.139 47.8C144.139 48.1333 143.939 48.5333 143.539 49C143.006 49.6 142.039 51.0333 140.639 53.3C139.306 55.5 137.939 58.0333 136.539 60.9C135.139 63.7667 133.872 66.7333 132.739 69.8C131.672 72.8 131.139 75.4 131.139 77.6C131.139 78.7333 131.506 79.3667 132.239 79.5C134.039 79.4333 135.639 78.7333 137.039 77.4C138.439 76 139.672 74.3333 140.739 72.4C141.872 70.4667 142.872 68.4333 143.739 66.3C144.672 64.1667 145.539 62.2667 146.339 60.6C147.472 58.2667 148.472 56.2333 149.339 54.5C150.206 52.7 151.239 51.2 152.439 50C153.639 48.8 155.172 47.9 157.039 47.3C158.972 46.6333 161.572 46.3 164.839 46.3ZM189.705 13.5C190.105 12.9 191.071 12.3333 192.605 11.8C194.205 11.2667 196.938 10.9333 200.805 10.8C201.738 10.7333 202.405 10.9 202.805 11.3C203.271 11.6333 203.538 12.1 203.605 12.7C203.738 13.2333 203.705 13.8 203.505 14.4C203.371 15 203.205 15.5333 203.005 16C201.671 18.4 200.438 20.9 199.305 23.5C198.238 26.1 197.038 28.9 195.705 31.9C199.038 34.2333 201.571 35.9667 203.305 37.1C205.105 38.1667 206.371 38.9667 207.105 39.5C207.905 40.0333 208.338 40.4333 208.405 40.7C208.471 40.9 208.471 41.3 208.405 41.9C208.205 42.7667 207.871 43.5333 207.405 44.2C207.005 44.7333 206.405 45.2 205.605 45.6C204.871 45.9333 203.871 45.9333 202.605 45.6C201.671 45.4 200.938 45.2 200.405 45C199.938 44.7333 199.505 44.4667 199.105 44.2C198.705 43.9333 198.271 43.6333 197.805 43.3C197.405 42.9667 196.805 42.5667 196.005 42.1C195.405 41.7667 194.805 41.4 194.205 41C193.605 40.6 192.938 40.2 192.205 39.8L191.505 41.5C190.905 43.0333 190.271 44.5667 189.605 46.1C188.938 47.5667 188.305 49.0667 187.705 50.6C186.505 53.4667 185.338 56.2333 184.205 58.9C183.138 61.5667 182.171 64.1 181.305 66.5C180.438 68.8333 179.738 70.9667 179.205 72.9C178.738 74.8333 178.505 76.5 178.505 77.9C178.505 78.8333 178.771 79.3667 179.305 79.5C179.905 79.6333 180.638 79.5333 181.505 79.2C182.371 78.8 183.271 78.2667 184.205 77.6C185.205 76.9333 186.071 76.3 186.805 75.7C187.205 75.3667 187.771 74.8 188.505 74C189.305 73.2 190.138 72.4 191.005 71.6C191.871 70.7333 192.705 70 193.505 69.4C194.371 68.7333 195.038 68.4 195.505 68.4C196.305 68.5333 196.738 68.9667 196.805 69.7C196.871 70.3667 196.771 71.1333 196.505 72C196.238 72.8 195.871 73.6 195.405 74.4C195.005 75.2 194.705 75.7333 194.505 76C193.105 77.8667 191.571 79.6667 189.905 81.4C188.238 83.1333 186.438 84.7 184.505 86.1C182.638 87.4333 180.638 88.5 178.505 89.3C176.438 90.1 174.271 90.4667 172.005 90.4C171.605 90.4 171.038 90.3333 170.305 90.2C169.571 90.1333 168.938 89.9333 168.405 89.6C167.405 89.0667 166.705 88.2333 166.305 87.1C165.838 85.9 165.605 84.5667 165.605 83.1C165.605 82.5667 165.605 82.0333 165.605 81.5C165.538 80.9 165.571 80.3333 165.705 79.8C165.971 76.2 166.738 72.2667 168.005 68C169.271 63.6667 170.671 59.3667 172.205 55.1C173.805 50.8333 175.405 46.7667 177.005 42.9C178.671 39.0333 180.071 35.7333 181.205 33C178.005 31 174.771 29 171.505 27C168.305 25 165.305 23.1667 162.505 21.5C159.638 19.7667 157.105 18.2667 154.905 17C152.638 15.7333 150.905 14.8333 149.705 14.3C148.971 14.0333 148.438 13.4 148.105 12.4C147.771 11.4 147.571 10.3 147.505 9.1C147.438 7.9 147.471 6.7 147.605 5.5C147.671 4.3 147.771 3.36666 147.905 2.7C147.971 1.83333 148.171 1.26666 148.505 0.999995C148.771 0.733328 149.171 0.666662 149.705 0.799998C151.638 1.13333 155.605 3.4 161.605 7.59999C167.538 11.8 175.271 17.3333 184.805 24.2C185.338 22.9333 185.805 21.8 186.205 20.8C186.605 19.8 186.971 18.9 187.305 18.1C187.638 17.2333 187.971 16.4333 188.305 15.7C188.705 14.9667 189.171 14.2333 189.705 13.5ZM196.521 80.8C197.321 79.3333 198.521 78.3 200.121 77.7C201.721 77.0333 203.188 77.0333 204.521 77.7C205.921 78.4333 206.788 79.6333 207.121 81.3C207.521 82.9 207.254 84.4667 206.321 86C205.854 86.7333 205.321 87.4 204.721 88C204.121 88.6 203.488 89.0667 202.821 89.4C202.154 89.6667 201.454 89.8333 200.721 89.9C199.988 89.9 199.288 89.7333 198.621 89.4C197.888 89.0667 197.288 88.6 196.821 88C196.354 87.3333 196.021 86.6 195.821 85.8C195.621 85 195.554 84.1667 195.621 83.3C195.754 82.4333 196.054 81.6 196.521 80.8ZM232.504 35.1C232.504 34.1 232.771 33.1667 233.304 32.3C233.904 31.3667 234.637 30.6 235.504 30C236.371 29.3333 237.337 28.8 238.404 28.4C239.537 28 240.637 27.8 241.704 27.8C243.571 27.8 245.004 28.3 246.004 29.3C247.004 30.2333 247.504 31.3333 247.504 32.6C247.504 34.2667 246.771 35.8 245.304 37.2C243.904 38.6 242.304 39.5333 240.504 40C239.704 40.2 238.971 40.3 238.304 40.3C236.504 40.3 235.071 39.7667 234.004 38.7C233.004 37.6333 232.504 36.4333 232.504 35.1ZM238.704 46.3C239.437 46.3 240.037 46.4667 240.504 46.8C240.971 47.0667 241.204 47.4 241.204 47.8C241.204 48.1333 241.004 48.5333 240.604 49C240.071 49.6 239.104 51.0333 237.704 53.3C236.371 55.5 235.004 58.0333 233.604 60.9C232.204 63.7667 230.937 66.7333 229.804 69.8C228.737 72.8 228.204 75.4 228.204 77.6C228.204 78.8667 228.704 79.5 229.704 79.5C230.304 79.5 231.037 79.2333 231.904 78.7C232.837 78.1667 233.804 77.5 234.804 76.7C235.871 75.8333 236.937 74.9333 238.004 74C239.137 73 240.171 72.1 241.104 71.3C242.037 70.4333 242.871 69.7333 243.604 69.2C244.337 68.6667 244.871 68.4 245.204 68.4C246.137 68.4 246.604 68.9333 246.604 70C246.604 70.5333 246.504 71.1333 246.304 71.8C246.104 72.4667 245.837 73.1333 245.504 73.8C245.171 74.5333 244.771 75.2333 244.304 75.9C243.904 76.5 243.471 77.0333 243.004 77.5C239.271 81.7 235.637 84.9 232.104 87.1C228.571 89.3 225.104 90.4 221.704 90.4C219.171 90.4 217.471 89.7 216.604 88.3C215.737 86.9 215.304 85.0667 215.304 82.8C215.304 80.5333 215.604 77.9 216.204 74.9C216.737 71.8333 217.471 68.7667 218.404 65.7C219.337 62.6333 220.404 59.7333 221.604 57C222.871 54.2 224.171 51.8667 225.504 50C225.904 49.4667 226.637 48.9667 227.704 48.5C228.837 48.0333 230.071 47.6333 231.404 47.3C232.804 46.9667 234.171 46.7333 235.504 46.6C236.837 46.4 237.904 46.3 238.704 46.3ZM291.123 68.4C292.056 68.4 292.523 68.9333 292.523 70C292.523 71.1333 292.123 72.4333 291.323 73.9C290.589 75.3667 289.789 76.5667 288.923 77.5C285.189 81.7 281.556 84.9 278.023 87.1C274.489 89.3 271.056 90.4 267.723 90.4C265.056 90.4 263.289 89.6333 262.423 88.1C261.556 86.5 261.123 84.5333 261.123 82.2C261.123 80.2 261.523 78.1667 262.323 76.1C263.189 73.9667 264.156 71.9667 265.223 70.1C266.356 68.2333 267.489 66.5333 268.623 65C269.756 63.4667 270.656 62.2 271.323 61.2C271.856 60.4667 272.123 59.9333 272.123 59.6C272.123 59.4 272.023 59.3 271.823 59.3C270.889 59.3 269.623 59.7333 268.023 60.6C266.423 61.4667 264.689 62.7667 262.823 64.5C261.023 66.1667 259.223 68.2333 257.423 70.7C255.623 73.1 254.056 75.8667 252.723 79C251.323 82.2 249.889 84.8667 248.423 87C246.956 89.0667 245.156 90.1333 243.023 90.2C241.623 90.2 240.089 89.6 238.423 88.4C238.489 87.4 238.656 86.1 238.923 84.5C239.123 82.8333 239.523 80.8 240.123 78.4C240.656 76 241.389 73.1333 242.323 69.8C243.323 66.4667 244.589 62.6 246.123 58.2C246.723 56.4667 247.256 54.8667 247.723 53.4C248.189 51.8667 248.589 50.4333 248.923 49.1C249.123 48.3 249.656 47.6333 250.523 47.1C251.456 46.5667 252.523 46.1333 253.723 45.8C254.989 45.4667 256.256 45.2333 257.523 45.1C258.856 44.9 259.989 44.8 260.923 44.8C261.923 44.8 262.823 44.9333 263.623 45.2C264.423 45.4 264.823 46.0667 264.823 47.2C264.823 48.1333 264.623 49.0333 264.223 49.9C263.823 50.7 263.389 51.5667 262.923 52.5C262.456 53.5667 261.889 54.7333 261.223 56C260.623 57.2 259.956 58.5667 259.223 60.1C260.823 58.2333 262.589 56.5 264.523 54.9C266.456 53.2333 268.423 51.8 270.423 50.6C272.489 49.4 274.556 48.4667 276.623 47.8C278.689 47.0667 280.656 46.7 282.523 46.7C284.723 46.7 286.289 47.0667 287.223 47.8C288.156 48.4667 288.623 49.4 288.623 50.6C288.623 51.4667 288.423 52.4333 288.023 53.5C287.623 54.5667 287.089 55.7 286.423 56.9C285.623 58.4333 284.656 60.0333 283.523 61.7C282.389 63.3 281.256 64.9 280.123 66.5C279.056 68.1 278.056 69.6667 277.123 71.2C276.189 72.6667 275.456 74.0333 274.923 75.3C274.656 75.8333 274.456 76.3333 274.323 76.8C274.256 77.2 274.189 77.6 274.123 78C274.189 79 274.723 79.5 275.723 79.5C276.523 79.5 277.656 78.9333 279.123 77.8C280.656 76.6 282.223 75.3333 283.823 74C285.423 72.6 286.889 71.3333 288.223 70.2C289.623 69 290.589 68.4 291.123 68.4Z" fill="url(#paint0_linear)"/>
<defs>
<linearGradient id="paint0_linear" x1="59.4752" y1="24.4782" x2="145.732" y2="177.062" gradientUnits="userSpaceOnUse">
<stop stop-color="#00CCFF"/>
<stop offset="1" stop-color="#0080FF"/>
</linearGradient>
</defs>
</svg>
